<?xml version="1.0" encoding="UTF-8" standalone="no"?>
<!DOCTYPE svg PUBLIC "-//W3C//DTD SVG 1.1//EN" "http://www.w3.org/Graphics/SVG/1.1/DTD/svg11.dtd">
<svg width="100%" height="100%" viewBox="0 0 1280 1280" version="1.1" xmlns="http://www.w3.org/2000/svg" xmlns:xlink="http://www.w3.org/1999/xlink" xml:space="preserve" xmlns:serif="http://www.serif.com/" style="fill-rule:evenodd;clip-rule:evenodd;stroke-linejoin:round;stroke-miterlimit:2;">
    <g transform="matrix(-0.0708073,0.0706139,-0.0706139,-0.0708073,1545.7,641.426)">
        <path d="M6288,11770C6116,11749 5916,11663 5777,11550C5737,11518 4991,10777 4118,9903C2402,8185 2465,8252 2389,8068C2334,7936 2316,7841 2317,7685C2317,7566 2321,7530 2344,7445C2515,6797 3263,6507 3826,6872C3890,6913 4047,7065 4662,7679L5420,8434L5423,5145L5425,1855L5447,1775C5560,1358 5888,1073 6302,1031C6821,979 7286,1341 7365,1860C7378,1941 7380,2416 7380,5195L7380,8435L8138,7678C8946,6871 8958,6860 9125,6791C9265,6732 9340,6717 9500,6716C9695,6715 9830,6748 9987,6836C10494,7119 10639,7776 10302,8260C10254,8330 7146,11449 7029,11545C6957,11605 6812,11689 6738,11714C6581,11767 6421,11787 6288,11770Z" style="fill:white;fill-rule:nonzero;"/>
    </g>
</svg>
